# xmcd
#
# Track frame offsets:
#	150
#	12799
#	24500
#	39355
#	49446
#	59537
#	74913
#	88691
#	100906
#	113915
#	124376
#	138605
#	149956
#	156226
#	164340
#	175265
#	184631
#	197625
#
# Disc length: 2885 seconds
#
# Revision: 1
# Processed by: cddbd v1.5.2PL0 Copyright (c) Steve Scherf et al.
# Submitted via: audiograbber 1.83.01
#
DISCID=140b4312
DTITLE=Verschieden Interpreten - Queen Of Hearts
DYEAR=2007
DGENRE=Country
TTITLE0=Holly Dunn - You Really Had Me Going
TTITLE1=Don Gibson - Give Myself A Party
TTITLE2=Juice Newton - Queen Of Hearts
TTITLE3=Patsy Cline - Walking Dreams
TTITLE4=Mickey Gilley - Lonely  Wine
TTITLE5=Asleep At The Wheel - Miles And Miles Of Texas
TTITLE6=Lynn Anderson - Two Doors Down
TTITLE7=Moe Bandy - Just Good Of Boys
TTITLE8=T Graham Brown - I Tell It Like It Used To Be
TTITLE9=Honky Tonk Merry Go Roumg - Patsy Cline
TTITLE10=Do I Love You - Donna Fargo
TTITLE11=Sea Of Heartbreak - Don Gibson
TTITLE12=The Boy Who Didn´t Pass - Mickey Gilley
TTITLE13=Things To Remeber - Willie Nelson
TTITLE14=Porter Wagoner - EnoughTo Make A Grown Man Cry
TTITLE15=Tex Ritter - Froggy Went A Courtin´
TTITLE16=Juice Newton - Sunshine
TTITLE17=Asleep At The Wheel - Cotton Eyed Joe
EXTD=
EXTT0=
EXTT1=
EXTT2=
EXTT3=
EXTT4=
EXTT5=
EXTT6=
EXTT7=
EXTT8=
EXTT9=
EXTT10=
EXTT11=
EXTT12=
EXTT13=
EXTT14=
EXTT15=
EXTT16=
EXTT17=
PLAYORDER=
